<svg xmlns="http://www.w3.org/2000/svg" xmlns:xlink="http://www.w3.org/1999/xlink" width="169" height="45.417" viewBox="0 0 169 45.417"><defs><style>.a,.b{fill:#005574;}.a,.c{clip-rule:evenodd;}.c,.d{fill:#00c749;}.e{clip-path:url(#a);}.f{clip-path:url(#b);}.g{clip-path:url(#c);}.h{clip-path:url(#e);}.i{clip-path:url(#g);}.j{clip-path:url(#i);}.k{clip-path:url(#k);}.l{clip-path:url(#m);}.m{clip-path:url(#n);}</style><clipPath id="a"><path class="a" d="M9.88-27.746v.374c6.192-4.324,10.036-16.282,6.779-16.5C13.243-44.081,10.361-30.362,9.88-27.746ZM21.571-23.9c-.214-4.538-7.954-2.456-11.852.8-.106,6.032.161,10.943,1.174,11.53C10.894-11.571,21.838-16.109,21.571-23.9Zm0,8.167C17.887-11.3,12.55-8.262,4.915-8.262c-9.5.267-2.028-38.115-3.523-43.507,0,0,10.249-2.3,9.449,7.581-.108,1.441-.214,3.1-.321,4.911,1.762-3.789,4.431-7.26,8.008-6.832,5.178.694,3.257,9.662-2.3,16.388a11.769,11.769,0,0,1,2.829-.32c8.06,0,7.581,8.168,2.509,14.306Z" transform="translate(0 52)"/></clipPath><clipPath id="b"><path class="b" d="M-93,260.466H240.658V-333H-93Z" transform="translate(93 333)"/></clipPath><clipPath id="c"><path class="a" d="M60.548-23.015c-.373,1.335-3.309,18.951-13.666,18.951-4,0-5.072-4.111-5.017-8.968-1.548,2.4-3.79,4.163-6.94,4-8.488-.321-3.257-17.724-3.9-19.966,0,0,8.061-1.495,7.154,4.751-1.174,8.168-1.495,13.506,2.3,9.609,3.737-3.844,2.883-12.385,2.883-12.385s9.128-2.029,8.434,6.78-1.922,14.467,2.082,9.822c4-4.7,4.911-13.292,4.911-13.292s2.135-.587,1.761.694" transform="translate(-30.013 29.151)"/></clipPath><clipPath id="e"><path class="a" d="M82.687-22.624s-2.349,4.591-3.31,6.246a15.881,15.881,0,0,1-1.655,2.562,8.846,8.846,0,0,1-1.228,1.228c-.107.107-.267.161-.374.268-.16.052-.267.16-.427.213-.107,0-.16.054-.267.107h-.16a.053.053,0,0,1-.053.054H74.68a1.031,1.031,0,0,1-.641-.214,1.294,1.294,0,0,1-.534-.535,3.479,3.479,0,0,1-.427-1.174,14.316,14.316,0,0,1-.107-2.082c.053-1.335.16-2.616.267-3.9.053-.641.107-1.281.107-1.868a14.514,14.514,0,0,0-.053-1.6.422.422,0,0,0-.267-.32c-.107-.053-.32.053-.427.16l-.32.32a10.057,10.057,0,0,0-.747,1.281c-.267.48-.48.961-.694,1.441-.374.961-.747,1.868-1.014,2.776-.587,1.761-1.014,3.31-1.281,4.323-.16.535-.48,1.763-.48,1.763-.961,3.736-3.2,4.217-4.644,4.271-7.794.266-1.6-16.6-2.83-22.422,0,0,8.381-2.4,7.741,8.115v.267c1.068-1.868,3.1-4.8,4.911-4.751,2.242.053,1.815,4.057,1.495,6.673a8.728,8.728,0,0,1-.107,1.174v.32c-.107.694-.16,1.388-.214,2.028,0,.588,0,1.228.053,1.708a3.3,3.3,0,0,0,.16.535l.053.052c.053,0,.053.054.107.054h.053L75-13.6h.16c0-.052.053-.052.107-.052.053-.054.16-.054.267-.107.053-.054.16-.107.267-.214a7.63,7.63,0,0,0,.961-.908,13.111,13.111,0,0,0,1.6-2.349c.908-1.548,3.2-5.926,3.2-5.926l1.121.534" transform="translate(-59.406 29.961)"/></clipPath><clipPath id="g"><path class="a" d="M94.28-18.491a1.88,1.88,0,0,1-1.335-.534s1.068-3.043-1.335-3.15c-.587-.053-3.043-.214-4.057,6.033-2.189,13.452,13.72-2.3,15.694-6.246l1.069.854C95.294-4.665,77.2-1.728,79.546-15.875c1.6-9.556,10.356-10.09,13.079-9.236,2.135.694,3.417,2.3,1.655,6.62" transform="translate(-79.338 25.395)"/></clipPath><clipPath id="i"><path class="a" d="M132.068-23.654s-4.538,12.865-9.235,11.9c-4.645-.961-2.884-17.3-6.46-17.3-3.63,0-.587,20.659-9.983,20.446-8.434.214-1.815-37.315-3.1-42.119,0,0,9.075-2.029,8.381,6.727-.374,4.751-.962,13.025-1.121,19.858,1.013-4.751,2.829-9.556,5.926-9.556,6.192,0,3.736,18.471,6.833,19.325,2.722.747,7.74-9.609,7.74-9.609l1.014.32" transform="translate(-102.025 50.923)"/></clipPath><clipPath id="k"><path class="a" d="M135.537-30.983a.867.867,0,0,1-.456-.1.367.367,0,0,1-.169-.339,26.344,26.344,0,0,1,1.134-3.65,16.727,16.727,0,0,0,1.134-5.083,5.281,5.281,0,0,0-.091-.743A5.278,5.278,0,0,1,137-41.7a3.318,3.318,0,0,1,.443-1.89,1.485,1.485,0,0,1,1.3-.639,3.117,3.117,0,0,1,1.46.313,2.434,2.434,0,0,1,.964.912,3.514,3.514,0,0,1,.391,1q.183.691.443,1.812a3.812,3.812,0,0,1-.182.639,6.072,6.072,0,0,1-.391.821q-.26.468-.443.821a1.777,1.777,0,0,0-.209.586,22.454,22.454,0,0,1-1.955,4.8q-.965,1.591-2.007,1.538h-1.277" transform="translate(-134.911 44.225)"/></clipPath><clipPath id="m"><path class="c" d="M155.639-24.837v-.053C155.587-24.891,155.639-24.891,155.639-24.837Zm29.147,3.79s-7.634,16.228-17.03,16.228c-8.007,0,2.99-23.382-3.362-22.1a.053.053,0,0,0-.054.053,3.934,3.934,0,0,0-1.494.961,7.987,7.987,0,0,0-1.335,1.975,16.763,16.763,0,0,0-.961,2.776c-.214,1.014-.427,2.082-.641,3.257-.054.32-.107.587-.16.908-.053.159-.053.32-.107.48a.755.755,0,0,0-.107.32,3.185,3.185,0,0,1-.214.374l-.267.266c-.107.054-.16.054-.267.108-.053,0-.107.053-.214.053h-.107a1.069,1.069,0,0,1-.587-.161,1.119,1.119,0,0,1-.267-.214,2.347,2.347,0,0,1-.267-.426.763.763,0,0,1-.107-.32,8.707,8.707,0,0,1-.214-1.014c-.107-.641-.16-1.281-.267-1.922-.053-.641-.107-1.228-.16-1.868-.107-.587-.16-1.174-.267-1.762a8.216,8.216,0,0,0-.48-1.495.737.737,0,0,0-.16-.214l-.16.16c-.107.214-.267.427-.374.641-.214.427-.427.961-.641,1.441-.16.48-.32,1.014-.48,1.495q-.48,1.521-.8,2.883c-.427,1.761-.747,3.31-1.014,4.378-.107.693-.214,1.228-.267,1.495-.908,3.737-3.257,4.217-4.75,4.27-7.794.214-1.6-17.616-2.829-22.9,0,0,8.381-2.241,7.74,7.367a11.1,11.1,0,0,1-.107,1.388c.161-.374.267-.747.428-1.174a16,16,0,0,1,.8-1.708,6.482,6.482,0,0,1,.587-.908,3.177,3.177,0,0,1,.428-.427,2.566,2.566,0,0,1,.693-.48,1.275,1.275,0,0,1,.48-.107.2.2,0,0,0,.161-.053h.106l.107.053h.16a2.039,2.039,0,0,1,.854.32,3.045,3.045,0,0,1,.587.587c.107.214.214.374.32.587.16.374.267.694.374,1.014a8.673,8.673,0,0,1,.214,1.014c.107.694.16,1.335.214,1.975s.106,1.281.106,1.868v.16c.214-.747.375-1.441.588-2.082a14.646,14.646,0,0,1,1.228-2.936,8.01,8.01,0,0,1,1.707-2.189,6.165,6.165,0,0,1,1.869-1.068c.053,0,.213-.053.267-.053.587-.107,9.021-1.708,8.381,6.78-.695,8.809-2.189,13.667,2.615,9.715a43.777,43.777,0,0,0,8.487-9.982l1.015.214Z" transform="translate(-143.196 31.15)"/></clipPath><clipPath id="n"><path class="d" d="M-93,260.466H240.658V-333H-93Z" transform="translate(93 333)"/></clipPath></defs><g class="e" transform="translate(0 0)"><g class="f" transform="translate(-82.747 -250.021)"><path class="b" d="M-5-57H29.168V-4.363H-5Z" transform="translate(83.298 302.572)"/></g></g><g class="g" transform="translate(26.704 20.33)"><g class="f" transform="translate(-109.451 -270.351)"><path class="b" d="M25.013-34.151H64.489V-.167H25.013Z" transform="translate(79.99 300.053)"/></g></g><g class="h" transform="translate(52.857 19.61)"><g class="f" transform="translate(-135.604 -269.631)"><path class="b" d="M54.406-34.961H86.585V-3.4H54.406Z" transform="translate(76.749 300.143)"/></g></g><g class="i" transform="translate(70.591 23.672)"><g class="f" transform="translate(-153.338 -273.693)"><path class="b" d="M74.338-30.4h33.876V-2.954H74.338Z" transform="translate(74.552 299.639)"/></g></g><g class="j" transform="translate(90.777 0.959)"><g class="f" transform="translate(-173.525 -250.98)"><path class="b" d="M97.025-55.923h38.94V-4.7H97.025Z" transform="translate(72.051 302.454)"/></g></g><g class="k" transform="translate(120.038 6.918)"><g class="f" transform="translate(-202.785 -256.939)"><path class="b" d="M129.911-49.225H145.9v22.141H129.911Z" transform="translate(68.425 301.715)"/></g></g><g class="l" transform="translate(127.409 18.551)"><g class="m" transform="translate(-210.156 -268.573)"><path class="d" d="M138.2-36.15h50.489V-.921H138.2Z" transform="translate(67.512 300.274)"/></g></g></svg>