<svg width="852" height="212" viewBox="0 0 852 212" fill="none" xmlns="http://www.w3.org/2000/svg">
<g clip-path="url(#clip0)">
<path opacity="0.75" d="M33.9834 211.765V204.704H26.9224V211.765H33.9834Z" fill="#731E87"/>
<path d="M105.13 63.745H74.499V89.409H105.13V63.745Z" fill="url(#paint0_linear)"/>
<path d="M105.13 120.041H74.499V151.5H105.13V120.041Z" fill="url(#paint1_linear)"/>
<path d="M74.4997 33.942H47.1797V64.573H74.4997V33.942Z" fill="url(#paint2_linear)"/>
<path d="M19.8599 89.4091H7.79688V120.04H19.8599V89.4091Z" fill="url(#paint3_linear)"/>
<path d="M111.791 33.942H105.131V64.573H111.791V33.942Z" fill="url(#paint4_linear)"/>
<path d="M83.6062 89.4091H50.4912V120.04H83.6062V89.4091Z" fill="url(#paint5_linear)"/>
<path d="M141.995 50.45H134.934V57.511H141.995V50.45Z" fill="#5A3C8C"/>
<path opacity="0.5" d="M41.0439 204.704V197.643H33.9829V204.704H41.0439Z" fill="#731E87"/>
<path opacity="0.5" d="M33.9834 197.47V190.409H26.9224V197.47H33.9834Z" fill="#731E87"/>
<path d="M169.699 89.411H105.13V64.573H112.97V57.511H120.031V64.573H128.201V57.511H135.201V41.004H128.201V33.942H105.13V5.259C105.13 3.86423 104.576 2.52658 103.59 1.54033C102.603 0.554075 101.266 8.45669e-08 99.871 8.45669e-08H80.413C79.6364 -0.000131252 78.8674 0.152717 78.1499 0.449814C77.4324 0.746911 76.7804 1.18244 76.2313 1.73152C75.6821 2.28061 75.2464 2.9325 74.9492 3.64996C74.652 4.36743 74.499 5.13642 74.499 5.91301V33.943H26.514C25.6401 33.9429 24.7748 34.1149 23.9673 34.4492C23.1599 34.7836 22.4263 35.2737 21.8083 35.8916C21.1903 36.5094 20.7001 37.243 20.3657 38.0504C20.0312 38.8578 19.859 39.7231 19.859 40.597V89.411H4.99805C3.67196 89.411 2.40021 89.9378 1.46252 90.8755C0.524843 91.8131 -0.00195312 93.0849 -0.00195312 94.411V115.047C-0.00195312 115.704 0.127389 116.354 0.378662 116.96C0.629936 117.567 0.998232 118.118 1.46252 118.583C1.92682 119.047 2.47797 119.415 3.08459 119.666C3.69122 119.918 4.34144 120.047 4.99805 120.047H19.858V168.625H26.921V175.686H19.858V183.856H26.921V190.411H43.588V183.691H50.488V120.04H74.496V183.763C74.4959 184.636 74.6677 185.5 75.0016 186.306C75.3355 187.113 75.8249 187.845 76.442 188.462C77.059 189.08 77.7916 189.569 78.5978 189.903C79.4041 190.237 80.2683 190.409 81.1411 190.409H169.708C171.463 190.409 173.147 189.712 174.388 188.471C175.629 187.23 176.327 185.546 176.327 183.791V96.038C176.326 94.2804 175.628 92.5949 174.385 91.3522C173.142 90.1095 171.457 89.4113 169.699 89.411ZM119.999 43.391H127.058V50.452H119.996L119.999 43.391ZM41.044 183.347H33.9821V176.286H41.044V183.347ZM74.499 89.411H50.491V64.573H74.499V89.411ZM145.699 159.78H105.13V120.04H145.696L145.699 159.78Z" fill="url(#paint6_linear)"/>
<path opacity="0.5" d="M149.056 43.389H141.995V50.45H149.056V43.389Z" fill="#5A3C8C"/>
<path opacity="0.75" d="M156.118 50.45H149.057V57.511H156.118V50.45Z" fill="#5A3C8C"/>
<path d="M105.13 63.745H74.499V89.409H105.13V63.745Z" fill="url(#paint7_linear)"/>
<path d="M105.306 119.93H74.5859V151.389H105.306V119.93Z" fill="url(#paint8_linear)"/>
<path d="M74.4997 33.942H47.1797V64.573H74.4997V33.942Z" fill="url(#paint9_linear)"/>
<path d="M105.302 64.573H113.05V33.942H105.302V64.573Z" fill="url(#paint10_linear)"/>
<path d="M19.8619 89.4091H7.79492V120.04H19.8619V89.4091Z" fill="url(#paint11_linear)"/>
<path d="M50.4975 120.04H62.5645L62.5645 89.409H50.4975V120.04Z" fill="url(#paint12_linear)"/>
<path d="M84.6872 89.4091H50.4912V120.04H84.6872V89.4091Z" fill="url(#paint13_linear)"/>
<path d="M243 45.464H303.8V68.349H265.716V90.209H303.801V113.094H265.716V168.089H243V45.464Z" fill="#8D2382"/>
<path d="M336.242 88.845C340.512 79.451 347.857 75.01 355.371 75.01C358.817 74.9983 362.215 75.8193 365.277 77.403L358.277 96.871C356.22 95.7678 353.947 95.1272 351.618 94.994C345.128 94.994 340.004 102.508 339.492 115.83C339.32 120.779 339.32 126.417 339.32 131.373V168.089H316.601V77.405H336.241L336.242 88.845Z" fill="#8D2382"/>
<path d="M400.108 55.029C400.11 56.9358 399.736 58.8243 399.008 60.5863C398.279 62.3484 397.21 63.9494 395.862 65.2977C394.513 66.6461 392.912 67.7152 391.15 68.444C389.388 69.1728 387.5 69.547 385.593 69.545C377.224 69.545 371.075 62.203 371.075 53.834C371.075 45.976 377.737 40 385.593 40C387.535 40.0278 389.452 40.4393 391.234 41.2108C393.016 41.9822 394.628 43.0985 395.977 44.4952C397.326 45.892 398.385 47.5418 399.094 49.3496C399.803 51.1574 400.148 53.0875 400.108 55.029ZM374.319 77.403H397.035V168.09H374.319V77.403Z" fill="#8D2382"/>
<path d="M484.643 158.527C476.617 166.383 468.078 170.481 456.636 170.481C433.58 170.481 413.426 150.669 413.426 122.828C413.426 94.4811 432.555 75.009 456.12 75.009C467.051 75.009 476.445 79.1091 484.643 87.3091V77.405H507.359V168.092H484.643V158.527ZM436.311 122.662C436.311 138.2 446.558 149.645 460.733 149.645C474.733 149.645 485.667 139.058 485.667 122.491C485.667 106.606 475.08 95.8461 460.733 95.8461C445.705 95.8451 436.311 107.805 436.311 122.662Z" fill="#8D2382"/>
<path d="M552.945 86.623C561.655 79.278 569.681 75.009 579.757 75.009C596.666 75.009 610.842 86.6231 610.842 106.094V168.088H588.125V125.221C588.125 107.291 586.587 95.8461 572.754 95.8461C569.655 95.8359 566.608 96.6341 563.912 98.1617C561.216 99.6894 558.966 101.894 557.383 104.557C552.773 111.899 552.945 120.1 552.945 129.491V168.091H530.225V77.405H552.941L552.945 86.623Z" fill="#8D2382"/>
<path d="M655.402 168.089H632.688V42.389H655.402V87.306C663.602 79.106 672.994 75.006 683.924 75.006C707.324 75.006 726.792 94.4781 726.792 122.825C726.792 150.666 706.467 170.477 683.411 170.477C671.969 170.477 663.602 166.377 655.401 158.523L655.402 168.089ZM654.377 122.489C654.377 138.889 665.308 149.643 679.314 149.643C693.489 149.643 703.907 138.198 703.907 122.66C703.907 107.799 694.343 95.8431 679.314 95.8431C664.796 95.8461 654.377 106.605 654.377 122.49V122.489Z" fill="#8D2382"/>
<path d="M768.961 55.029C768.963 56.9359 768.589 58.8244 767.86 60.5865C767.131 62.3487 766.062 63.9497 764.714 65.298C763.365 66.6464 761.764 67.7156 760.002 68.4443C758.24 69.1731 756.352 69.5471 754.445 69.545C746.076 69.545 739.927 62.203 739.927 53.834C739.927 45.976 746.587 40 754.445 40C756.386 40.0278 758.303 40.4393 760.086 41.2108C761.868 41.9822 763.48 43.0984 764.829 44.4952C766.178 45.8919 767.237 47.5417 767.947 49.3495C768.656 51.1574 769 53.0875 768.961 55.029ZM743.172 77.403H765.888V168.09H743.172V77.403Z" fill="#8D2382"/>
<path d="M782.62 77.402H852.13L811.311 148.791H849.911V168.091H776.302L817.289 96.7009H782.62V77.402Z" fill="#8D2382"/>
</g>
<defs>
<linearGradient id="paint0_linear" x1="89.8145" y1="63.745" x2="89.8145" y2="89.409" gradientUnits="userSpaceOnUse">
<stop stop-opacity="0"/>
<stop offset="1" stop-opacity="0.2"/>
</linearGradient>
<linearGradient id="paint1_linear" x1="89.8145" y1="151.5" x2="89.8145" y2="120.041" gradientUnits="userSpaceOnUse">
<stop stop-opacity="0"/>
<stop offset="1" stop-opacity="0.2"/>
</linearGradient>
<linearGradient id="paint2_linear" x1="-3852.37" y1="-1235.35" x2="-3852.37" y2="-1208.02" gradientUnits="userSpaceOnUse">
<stop stop-opacity="0"/>
<stop offset="1" stop-opacity="0.2"/>
</linearGradient>
<linearGradient id="paint3_linear" x1="-3907.71" y1="-1274.71" x2="-3907.71" y2="-1262.67" gradientUnits="userSpaceOnUse">
<stop stop-opacity="0"/>
<stop offset="1" stop-opacity="0.2"/>
</linearGradient>
<linearGradient id="paint4_linear" x1="-3852.47" y1="-1170.74" x2="-3852.47" y2="-1177.39" gradientUnits="userSpaceOnUse">
<stop stop-opacity="0"/>
<stop offset="1" stop-opacity="0.2"/>
</linearGradient>
<linearGradient id="paint5_linear" x1="-3907.81" y1="-1198.93" x2="-3907.81" y2="-1232.04" gradientUnits="userSpaceOnUse">
<stop stop-opacity="0"/>
<stop offset="1" stop-opacity="0.2"/>
</linearGradient>
<linearGradient id="paint6_linear" x1="25.0368" y1="56.5521" x2="197.543" y2="202.333" gradientUnits="userSpaceOnUse">
<stop stop-color="#003AAB"/>
<stop offset="0.465" stop-color="#731E87"/>
<stop offset="0.532" stop-color="#831A82"/>
<stop offset="0.608" stop-color="#8E177F"/>
<stop offset="0.672" stop-color="#9E1379"/>
<stop offset="1" stop-color="#F10060"/>
</linearGradient>
<linearGradient id="paint7_linear" x1="89.8145" y1="63.745" x2="89.8145" y2="89.409" gradientUnits="userSpaceOnUse">
<stop stop-opacity="0"/>
<stop offset="1" stop-opacity="0.2"/>
</linearGradient>
<linearGradient id="paint8_linear" x1="89.9459" y1="151.389" x2="89.9459" y2="119.93" gradientUnits="userSpaceOnUse">
<stop stop-opacity="0"/>
<stop offset="1" stop-opacity="0.2"/>
</linearGradient>
<linearGradient id="paint9_linear" x1="74.4997" y1="36.852" x2="41.4696" y2="36.7058" gradientUnits="userSpaceOnUse">
<stop stop-opacity="0.322"/>
<stop offset="1" stop-color="#545454" stop-opacity="0"/>
</linearGradient>
<linearGradient id="paint10_linear" x1="105.302" y1="61.6631" x2="114.669" y2="61.6748" gradientUnits="userSpaceOnUse">
<stop stop-opacity="0.322"/>
<stop offset="1" stop-color="#545454" stop-opacity="0"/>
</linearGradient>
<linearGradient id="paint11_linear" x1="19.8619" y1="108.063" x2="2.9195" y2="108.097" gradientUnits="userSpaceOnUse">
<stop stop-opacity="0.263"/>
<stop offset="1" stop-color="#545454" stop-opacity="0"/>
</linearGradient>
<linearGradient id="paint12_linear" x1="50.4975" y1="101.386" x2="67.4399" y2="101.352" gradientUnits="userSpaceOnUse">
<stop stop-opacity="0.263"/>
<stop offset="1" stop-color="#545454" stop-opacity="0"/>
</linearGradient>
<linearGradient id="paint13_linear" x1="-3907.8" y1="-1197.83" x2="-3907.8" y2="-1232.04" gradientUnits="userSpaceOnUse">
<stop stop-opacity="0"/>
<stop offset="1" stop-opacity="0.2"/>
</linearGradient>
<clipPath id="clip0">
<rect width="851.795" height="211.765" fill="white"/>
</clipPath>
</defs>
</svg>
